<svg width="282" height="30" viewBox="0 0 282 30" fill="none" xmlns="http://www.w3.org/2000/svg">
<g clip-path="url(#clip0)">
<path d="M17.0461 0.0197754H30.2347V5.84658H16.1898C13.6548 5.84658 11.7326 6.31108 10.4232 7.24008C8.63997 8.17055 7.27536 9.96629 6.32933 12.6273C6.13807 13.3906 6.03296 14.1728 6.01595 14.9593C6.01595 17.2188 6.86561 19.3435 8.56494 21.3334C9.67722 22.4016 10.7218 23.1086 11.6988 23.4545C12.7699 23.9365 14.2404 24.1776 16.1104 24.1776H30.2347V30.0022H16.7725C13.3311 30.0022 10.7822 29.586 9.12549 28.7537C5.42229 27.1419 2.76957 24.5044 1.16735 20.8411C0.385274 18.9924 -0.0118972 17.0049 -0.000111398 14.9989C-0.000111398 10.5356 1.77572 6.72576 5.32739 3.56949C7.65201 1.81258 9.75447 0.775142 11.6348 0.45717C12.597 0.167039 14.4008 0.0212407 17.0461 0.0197754ZM14.4971 12.1284H30.2347V17.8914H14.4971V12.1284Z" fill="white"/>
<path d="M49.9359 13.9043V18.2431H34.6641V13.9043H49.9359Z" fill="white"/>
<path d="M51.2181 0.041748H67.973C74.0435 0.041748 78.2565 2.6837 80.612 7.9676C81.1901 9.48218 81.4804 11.0906 81.4683 12.7108C81.4683 16.2276 80.0897 19.3047 77.3325 21.9423C75.6332 23.4398 73.5506 24.4523 71.0848 24.9798C70.1301 25.1138 69.1666 25.1763 68.2025 25.1667L57.2562 25.292V29.9934H51.1761V19.3684H67.728C69.8879 19.3684 71.4688 18.9662 72.4707 18.1618C73.7522 17.3441 74.6717 16.0253 75.2294 14.2054C75.3261 13.7884 75.3815 13.3628 75.3949 12.935V12.3086C75.3949 10.7407 74.7196 9.21531 73.3689 7.73242C71.9624 6.5001 70.4028 5.8832 68.6903 5.88174H51.2181V0.041748Z" fill="white"/>
<path d="M84.5977 0.041748H90.6556V14.2098C90.6556 18.1764 92.1806 21.0609 95.2306 22.8632C96.568 23.7424 98.3438 24.182 100.558 24.182H114.888V30.0066H100.763C96.938 30.0066 93.8807 29.2087 91.5914 27.613C90.9543 27.2906 89.9965 26.5118 88.718 25.2766C87.0613 23.4186 85.9402 21.5466 85.3546 19.6608C84.8544 18.2321 84.6035 16.1858 84.6021 13.5219L84.5977 0.041748Z" fill="white"/>
<path d="M134.401 0H148.305V30H142.273V5.84658L136.884 5.86636H135.589C132.58 5.86636 130.908 5.99165 130.574 6.24222C128.752 6.74306 127.148 7.83328 126.015 9.34134C124.678 11.2462 124.009 13.1394 124.009 15.0209C124.009 17.3507 124.914 19.4937 126.726 21.4499C127.938 22.6017 128.983 23.2947 129.859 23.5292C130.742 23.9688 132.253 24.1886 134.392 24.1886H138.586V29.9934H133.563C129.83 29.9934 126.676 29.0153 124.099 27.0591C122.234 25.5938 120.988 24.2626 120.361 23.0654C118.8 20.5978 118.02 18.0739 118.021 15.4934V14.6143C118.021 11.0096 119.379 7.70166 122.095 4.69045C123.737 3.10499 125.081 2.10345 126.125 1.68584C127.116 1.17663 128.16 0.778562 129.239 0.498938C130.422 0.166313 132.143 0 134.401 0Z" fill="white"/>
<path d="M163.623 30V25.0897C161.197 24.4435 158.929 23.3104 156.958 21.7598C155.302 20.2769 154.222 19.0424 153.721 18.0563C153.024 16.9417 152.483 15.7379 152.112 14.478C151.67 13.0918 151.45 11.2052 151.45 8.81822V0.041748H157.508V9.09076C157.508 11.7283 158.023 13.7607 159.053 15.1879C159.26 15.6451 159.928 16.3733 161.056 17.3727C162.616 18.6503 164.573 19.3488 166.592 19.3488C168.612 19.3488 170.569 18.6503 172.129 17.3727C173.257 16.3719 173.926 15.6436 174.135 15.1879C175.165 13.7592 175.679 11.7269 175.679 9.09076V0.041748H181.737V8.82041C181.737 11.2074 181.517 13.094 181.075 14.4802C180.718 15.7449 180.176 16.9505 179.467 18.0585C178.966 19.0431 177.894 20.2777 176.251 21.762C174.271 23.3088 171.997 24.4407 169.566 25.0897V30H163.623Z" fill="white"/>
<path d="M201.911 0.0197754H215.093V5.84657H201.05C198.517 5.84657 196.595 6.31108 195.286 7.24008C193.503 8.17055 192.138 9.96629 191.192 12.6273C191.001 13.3906 190.896 14.1728 190.879 14.9593C190.879 17.2188 191.727 19.3435 193.425 21.3334C194.539 22.4016 195.584 23.1086 196.559 23.4545C197.632 23.9395 199.103 24.1827 200.973 24.1842H215.097V30.0088H201.635C198.197 30.0088 195.648 29.5926 193.99 28.7603C190.286 27.1485 187.633 24.5109 186.032 20.8477C185.248 18.9981 184.85 17.0088 184.862 15.0011C184.862 10.5378 186.638 6.72796 190.188 3.57168C192.517 1.81331 194.621 0.775142 196.502 0.45717C197.463 0.167039 199.266 0.0212407 201.911 0.0197754ZM199.364 12.1284H215.093V17.8914H199.364V12.1284Z" fill="white"/>
<path d="M218.288 0.0197754H237.632C241.051 0.0197754 243.725 1.0389 245.654 3.07714C246.401 3.7285 247.012 4.52023 247.451 5.40698C248.167 6.76418 248.553 8.26989 248.578 9.80291V10.6557C248.578 12.8537 247.622 14.9967 245.709 17.0848C244.484 18.257 243.37 19.0058 242.368 19.3311C244.902 22.0243 246.168 25.5821 246.168 30.0044H240.091V29.5472C240.091 26.2737 238.761 23.6728 236.101 21.7444C234.582 20.6762 232.596 20.1421 230.142 20.1421H218.288V14.3549H238.007C240.166 14.3549 241.628 13.294 242.395 11.1722C242.479 10.7326 242.534 10.381 242.562 10.0908C242.562 8.91127 242.068 7.84306 241.079 6.88621C240.316 6.25184 239.357 5.89935 238.363 5.88834C238.363 5.83339 238.071 5.80481 237.48 5.80481H218.28L218.288 0.0197754Z" fill="white"/>
<path d="M261.279 0.0417523H281.561V6.19605H261.089C259.49 6.19605 258.509 6.97926 258.145 8.54567V8.98526C258.145 9.91427 258.668 10.6909 259.712 11.3151C260.031 11.4399 260.371 11.5033 260.714 11.5019H271.009C273.658 11.5019 275.454 11.7723 276.399 12.313C278.74 13.3548 280.358 14.9432 281.254 17.0782C281.739 18.3045 281.994 19.6089 282.007 20.9268C282.007 23.9219 280.6 26.4459 277.787 28.4988C276.894 29.0504 275.922 29.4647 274.905 29.7274C274.097 29.9077 272.753 29.9978 270.873 29.9978H251.739L251.717 23.8435H272.272C273.999 23.8435 275.103 22.9973 275.582 21.3048L275.624 20.7444C275.624 19.5501 275.036 18.6343 273.859 17.9969C273.357 17.758 272.805 17.6441 272.25 17.665H260.699C257.677 17.665 255.156 16.3462 253.138 13.7087C252.295 12.3813 251.837 10.8479 251.814 9.27759V8.46435C251.814 5.3872 253.318 2.95332 256.327 1.16271C257.567 0.413941 259.218 0.040287 261.279 0.0417523Z" fill="white"/>
</g>
<defs>
<clipPath id="clip0">
<rect width="282" height="30" fill="white"/>
</clipPath>
</defs>
</svg>
