<svg width="282" height="51" viewBox="0 0 282 51" fill="none" xmlns="http://www.w3.org/2000/svg">
<g clip-path="url(#clip0_1_4)">
<path d="M17.0461 0.0336304H30.2347V9.9392H16.1898C13.6548 9.9392 11.7326 10.7288 10.4232 12.3081C8.63997 13.8899 7.27536 16.9427 6.32933 21.4664C6.13807 22.764 6.03296 24.0938 6.01595 25.4308C6.01595 29.272 6.86561 32.884 8.56494 36.2668C9.67722 38.0827 10.7218 39.2846 11.6988 39.8727C12.7699 40.6921 14.2404 41.1019 16.1104 41.1019H30.2347V51.0038H16.7725C13.3311 51.0038 10.7822 50.2962 9.12549 48.8813C5.42229 46.1412 2.76957 41.6575 1.16735 35.4299C0.385274 32.2871 -0.0118972 28.9083 -0.000111396 25.4981C-0.000111396 17.9105 1.77572 11.4338 5.32739 6.06815C7.65201 3.0814 9.75447 1.31775 11.6348 0.777201C12.597 0.283979 14.4008 0.0361214 17.0461 0.0336304ZM14.4971 20.6183H30.2347V30.4154H14.4971V20.6183Z" fill="white"/>
<path d="M49.9359 23.6373V31.0133H34.6641V23.6373H49.9359Z" fill="white"/>
<path d="M51.2181 0.0709839H67.973C74.0435 0.0709839 78.2565 4.5623 80.612 13.5449C81.1901 16.1197 81.4804 18.854 81.4683 21.6084C81.4683 27.5869 80.0897 32.818 77.3325 37.3019C75.6332 39.8477 73.5506 41.5689 71.0848 42.4657C70.1301 42.6935 69.1666 42.7997 68.2025 42.7834L57.2562 42.9964V50.9888H51.1761V32.9263H67.728C69.8879 32.9263 71.4688 32.2425 72.4707 30.8751C73.7522 29.485 74.6717 27.243 75.2294 24.1492C75.3261 23.4403 75.3815 22.7168 75.3949 21.9895V20.9246C75.3949 18.2592 74.7196 15.666 73.3689 13.1451C71.9624 11.0502 70.4028 10.0015 68.6903 9.99897H51.2181V0.0709839Z" fill="white"/>
<path d="M84.5977 0.0709839H90.6556V24.1567C90.6556 30.8999 92.1806 35.8035 95.2306 38.8675C96.568 40.3621 98.3438 41.1094 100.558 41.1094H114.888V51.0112H100.763C96.938 51.0112 93.8807 49.6548 91.5914 46.9421C90.9543 46.394 89.9965 45.0701 88.718 42.9702C87.0613 39.8116 85.9402 36.6292 85.3546 33.4234C84.8544 30.9946 84.6035 27.5159 84.6021 22.9872L84.5977 0.0709839Z" fill="white"/>
<path d="M134.401 0H148.305V51H142.273V9.93919L136.884 9.97281H135.589C132.58 9.97281 130.908 10.1858 130.574 10.6118C128.752 11.4632 127.148 13.3166 126.015 15.8803C124.678 19.1185 124.009 22.337 124.009 25.5355C124.009 29.4962 124.914 33.1393 126.726 36.4648C127.938 38.4229 128.983 39.601 129.859 39.9996C130.742 40.747 132.253 41.1206 134.392 41.1206H138.586V50.9888H133.563C129.83 50.9888 126.676 49.326 124.099 46.0005C122.234 43.5095 120.988 41.2464 120.361 39.2112C118.8 35.0163 118.02 30.7256 118.021 26.3388V24.8443C118.021 18.7163 119.379 13.0928 122.095 7.97377C123.737 5.27848 125.081 3.57587 126.125 2.86593C127.116 2.00027 128.16 1.32356 129.239 0.848195C130.422 0.282732 132.143 0 134.401 0Z" fill="white"/>
<path d="M163.623 51V42.6525C161.197 41.554 158.929 39.6277 156.958 36.9917C155.302 34.4707 154.222 32.3721 153.721 30.6957C153.024 28.8009 152.483 26.7544 152.112 24.6126C151.67 22.2561 151.45 19.0489 151.45 14.991V0.0709839H157.508V15.4543C157.508 19.9381 158.023 23.3932 159.053 25.8194C159.26 26.5967 159.928 27.8346 161.056 29.5336C162.616 31.7055 164.573 32.893 166.592 32.893C168.612 32.893 170.569 31.7055 172.129 29.5336C173.257 27.8322 173.926 26.5941 174.135 25.8194C175.165 23.3906 175.679 19.9357 175.679 15.4543V0.0709839H181.737V14.9947C181.737 19.0526 181.517 22.2598 181.075 24.6164C180.718 26.7663 180.176 28.8159 179.467 30.6995C178.966 32.3733 177.894 34.4721 176.251 36.9954C174.271 39.625 171.997 41.5492 169.566 42.6525V51H163.623Z" fill="white"/>
<path d="M201.911 0.0336304H215.093V9.93918H201.05C198.517 9.93918 196.595 10.7288 195.286 12.3081C193.503 13.8899 192.138 16.9427 191.192 21.4664C191.001 22.764 190.896 24.0938 190.879 25.4308C190.879 29.272 191.727 32.884 193.425 36.2668C194.539 38.0827 195.584 39.2846 196.559 39.8727C197.632 40.6972 199.103 41.1106 200.973 41.1132H215.097V51.015H201.635C198.197 51.015 195.648 50.3074 193.99 48.8925C190.286 46.1525 187.633 41.6685 186.032 35.4411C185.248 32.2968 184.85 28.915 184.862 25.5019C184.862 17.9143 186.638 11.4375 190.188 6.07187C192.517 3.08264 194.621 1.31775 196.502 0.777201C197.463 0.283979 199.266 0.0361214 201.911 0.0336304ZM199.364 20.6183H215.093V30.4154H199.364V20.6183Z" fill="white"/>
<path d="M218.288 0.0336304H237.632C241.051 0.0336304 243.725 1.76614 245.654 5.23115C246.401 6.33846 247.012 7.6844 247.451 9.19188C248.167 11.4991 248.553 14.0588 248.578 16.665V18.1147C248.578 21.8513 247.622 25.4944 245.709 29.0442C244.484 31.0369 243.37 32.3099 242.368 32.8629C244.902 37.4413 246.168 43.4896 246.168 51.0075H240.091V50.2302C240.091 44.6653 238.761 40.2438 236.101 36.9655C234.582 35.1496 232.596 34.2416 230.142 34.2416H218.288V24.4033H238.007C240.166 24.4033 241.628 22.5998 242.395 18.9928C242.479 18.2454 242.534 17.6477 242.562 17.1544C242.562 15.1492 242.068 13.3332 241.079 11.7066C240.316 10.6281 239.357 10.0289 238.363 10.0102C238.363 9.91677 238.071 9.86819 237.48 9.86819H218.28L218.288 0.0336304Z" fill="white"/>
<path d="M261.279 0.0709912H281.561V10.5333H261.089C259.49 10.5333 258.509 11.8648 258.145 14.5276V15.275C258.145 16.8543 258.668 18.1745 259.712 19.2357C260.031 19.4478 260.371 19.5556 260.714 19.5532H271.009C273.658 19.5532 275.454 20.0129 276.399 20.9321C278.74 22.7032 280.358 25.4035 281.254 29.0329C281.739 31.1177 281.994 33.3351 282.007 35.5756C282.007 40.6672 280.6 44.958 277.787 48.448C276.894 49.3857 275.922 50.09 274.905 50.5366C274.097 50.8431 272.753 50.9963 270.873 50.9963H251.739L251.717 40.534H272.272C273.999 40.534 275.103 39.0954 275.582 36.2182L275.624 35.2655C275.624 33.2352 275.036 31.6783 273.859 30.5947C273.357 30.1886 272.805 29.995 272.25 30.0305H260.699C257.677 30.0305 255.156 27.7886 253.138 23.3048C252.295 21.0482 251.837 18.4414 251.814 15.7719V14.3894C251.814 9.15825 253.318 5.02066 256.327 1.97662C257.567 0.703712 259.218 0.0685002 261.279 0.0709912Z" fill="white"/>
</g>
<defs>
<clipPath id="clip0_1_4">
<rect width="282" height="51" fill="white"/>
</clipPath>
</defs>
</svg>
